<mxfile host="app.diagrams.net" modified="2023-09-17T23:47:37.527Z" agent="Mozilla/5.0 (Windows NT 10.0; Win64; x64) AppleWebKit/537.36 (KHTML, like Gecko) Chrome/116.0.0.0 Safari/537.36" etag="_EvXTzJQiyHmMcahpgQo" version="21.7.5" type="github">
  <diagram name="PÃ¡gina-1" id="KM19SgrHwHomDQCSFyO0">
    <mxGraphModel dx="1017" dy="1057" grid="1" gridSize="10" guides="1" tooltips="1" connect="1" arrows="1" fold="1" page="1" pageScale="1" pageWidth="827" pageHeight="1169" math="0" shadow="0">
      <root>
        <mxCell id="0" />
        <mxCell id="1" parent="0" />
        <mxCell id="8ZvYy-rvlSSrWRd-s6ZS-39" value="BaseIdentificador&lt;br&gt;&amp;lt;&amp;lt;Abstract&amp;gt;&amp;gt;" style="swimlane;fontStyle=0;childLayout=stackLayout;horizontal=1;startSize=30;horizontalStack=0;resizeParent=1;resizeParentMax=0;resizeLast=0;collapsible=1;marginBottom=0;whiteSpace=wrap;html=1;" vertex="1" parent="1">
          <mxGeometry x="355" y="260" width="140" height="70" as="geometry" />
        </mxCell>
        <mxCell id="8ZvYy-rvlSSrWRd-s6ZS-40" value="#codigo: int&lt;br&gt;+BaseIdentificador(int)" style="text;strokeColor=none;fillColor=none;align=left;verticalAlign=middle;spacingLeft=4;spacingRight=4;overflow=hidden;points=[[0,0.5],[1,0.5]];portConstraint=eastwest;rotatable=0;whiteSpace=wrap;html=1;" vertex="1" parent="8ZvYy-rvlSSrWRd-s6ZS-39">
          <mxGeometry y="30" width="140" height="40" as="geometry" />
        </mxCell>
        <mxCell id="8ZvYy-rvlSSrWRd-s6ZS-43" value="" style="endArrow=none;html=1;rounded=0;entryX=1;entryY=0.5;entryDx=0;entryDy=0;exitX=0;exitY=0.5;exitDx=0;exitDy=0;" edge="1" parent="8ZvYy-rvlSSrWRd-s6ZS-39" source="8ZvYy-rvlSSrWRd-s6ZS-40" target="8ZvYy-rvlSSrWRd-s6ZS-40">
          <mxGeometry width="50" height="50" relative="1" as="geometry">
            <mxPoint x="10" y="130" as="sourcePoint" />
            <mxPoint x="60" y="80" as="targetPoint" />
          </mxGeometry>
        </mxCell>
        <mxCell id="8ZvYy-rvlSSrWRd-s6ZS-44" value="BasePessoa&lt;br&gt;&amp;lt;&amp;lt;Abstract&amp;gt;&amp;gt;" style="swimlane;fontStyle=0;childLayout=stackLayout;horizontal=1;startSize=30;horizontalStack=0;resizeParent=1;resizeParentMax=0;resizeLast=0;collapsible=1;marginBottom=0;whiteSpace=wrap;html=1;" vertex="1" parent="1">
          <mxGeometry x="320" y="410" width="210" height="110" as="geometry" />
        </mxCell>
        <mxCell id="8ZvYy-rvlSSrWRd-s6ZS-45" value="#telefone: string&lt;br&gt;#datainsercao: data&lt;br&gt;#endereco: string" style="text;strokeColor=none;fillColor=none;align=left;verticalAlign=middle;spacingLeft=4;spacingRight=4;overflow=hidden;points=[[0,0.5],[1,0.5]];portConstraint=eastwest;rotatable=0;whiteSpace=wrap;html=1;" vertex="1" parent="8ZvYy-rvlSSrWRd-s6ZS-44">
          <mxGeometry y="30" width="210" height="50" as="geometry" />
        </mxCell>
        <mxCell id="8ZvYy-rvlSSrWRd-s6ZS-53" value="+BasePessoa(int, string, data, string)" style="rounded=0;whiteSpace=wrap;html=1;" vertex="1" parent="8ZvYy-rvlSSrWRd-s6ZS-44">
          <mxGeometry y="80" width="210" height="30" as="geometry" />
        </mxCell>
        <mxCell id="8ZvYy-rvlSSrWRd-s6ZS-48" value="" style="endArrow=classic;html=1;rounded=0;exitX=0.5;exitY=0;exitDx=0;exitDy=0;" edge="1" parent="1" source="8ZvYy-rvlSSrWRd-s6ZS-44" target="8ZvYy-rvlSSrWRd-s6ZS-39">
          <mxGeometry width="50" height="50" relative="1" as="geometry">
            <mxPoint x="378" y="400" as="sourcePoint" />
            <mxPoint x="428" y="350" as="targetPoint" />
          </mxGeometry>
        </mxCell>
        <mxCell id="8ZvYy-rvlSSrWRd-s6ZS-54" value="BasePessoaFisica&lt;br&gt;&amp;lt;&amp;lt;Abstract&amp;gt;&amp;gt;" style="swimlane;fontStyle=0;childLayout=stackLayout;horizontal=1;startSize=30;horizontalStack=0;resizeParent=1;resizeParentMax=0;resizeLast=0;collapsible=1;marginBottom=0;whiteSpace=wrap;html=1;" vertex="1" parent="1">
          <mxGeometry x="110" y="585" width="210" height="100" as="geometry" />
        </mxCell>
        <mxCell id="8ZvYy-rvlSSrWRd-s6ZS-55" value="#nome: string&lt;br&gt;#rg: string&lt;br&gt;#cpf: string&lt;br&gt;#dataNascimento: data" style="text;strokeColor=none;fillColor=none;align=left;verticalAlign=middle;spacingLeft=4;spacingRight=4;overflow=hidden;points=[[0,0.5],[1,0.5]];portConstraint=eastwest;rotatable=0;whiteSpace=wrap;html=1;" vertex="1" parent="8ZvYy-rvlSSrWRd-s6ZS-54">
          <mxGeometry y="30" width="210" height="70" as="geometry" />
        </mxCell>
        <mxCell id="8ZvYy-rvlSSrWRd-s6ZS-58" value="+BasePessoaFisica(..., string, string, string, data)" style="rounded=0;whiteSpace=wrap;html=1;" vertex="1" parent="1">
          <mxGeometry x="110" y="685" width="210" height="55" as="geometry" />
        </mxCell>
        <mxCell id="8ZvYy-rvlSSrWRd-s6ZS-67" value="" style="endArrow=classic;html=1;rounded=0;exitX=0.5;exitY=0;exitDx=0;exitDy=0;entryX=0.5;entryY=1;entryDx=0;entryDy=0;" edge="1" parent="1" source="8ZvYy-rvlSSrWRd-s6ZS-54" target="8ZvYy-rvlSSrWRd-s6ZS-53">
          <mxGeometry width="50" height="50" relative="1" as="geometry">
            <mxPoint x="370" y="560" as="sourcePoint" />
            <mxPoint x="400" y="530" as="targetPoint" />
            <Array as="points">
              <mxPoint x="215" y="550" />
              <mxPoint x="315" y="550" />
              <mxPoint x="425" y="550" />
            </Array>
          </mxGeometry>
        </mxCell>
        <mxCell id="8ZvYy-rvlSSrWRd-s6ZS-68" value="BasePessoaJuridica&lt;br&gt;&amp;lt;&amp;lt;Abstract&amp;gt;&amp;gt;" style="swimlane;fontStyle=0;childLayout=stackLayout;horizontal=1;startSize=30;horizontalStack=0;resizeParent=1;resizeParentMax=0;resizeLast=0;collapsible=1;marginBottom=0;whiteSpace=wrap;html=1;" vertex="1" parent="1">
          <mxGeometry x="530" y="585" width="210" height="100" as="geometry" />
        </mxCell>
        <mxCell id="8ZvYy-rvlSSrWRd-s6ZS-69" value="#nome2: string&lt;br&gt;#razaosocial: string&lt;br&gt;#cnpj: string&lt;br&gt;#dataEntrada: data" style="text;strokeColor=none;fillColor=none;align=left;verticalAlign=middle;spacingLeft=4;spacingRight=4;overflow=hidden;points=[[0,0.5],[1,0.5]];portConstraint=eastwest;rotatable=0;whiteSpace=wrap;html=1;" vertex="1" parent="8ZvYy-rvlSSrWRd-s6ZS-68">
          <mxGeometry y="30" width="210" height="70" as="geometry" />
        </mxCell>
        <mxCell id="8ZvYy-rvlSSrWRd-s6ZS-72" value="+BasePessoaJuridica(..., string, string, string, string, data)" style="rounded=0;whiteSpace=wrap;html=1;" vertex="1" parent="1">
          <mxGeometry x="530" y="685" width="210" height="50" as="geometry" />
        </mxCell>
        <mxCell id="8ZvYy-rvlSSrWRd-s6ZS-74" value="" style="endArrow=none;html=1;rounded=0;exitX=0.5;exitY=0;exitDx=0;exitDy=0;entryX=0.5;entryY=1;entryDx=0;entryDy=0;" edge="1" parent="1" source="8ZvYy-rvlSSrWRd-s6ZS-68" target="8ZvYy-rvlSSrWRd-s6ZS-53">
          <mxGeometry width="50" height="50" relative="1" as="geometry">
            <mxPoint x="640" y="570" as="sourcePoint" />
            <mxPoint x="430" y="550" as="targetPoint" />
            <Array as="points">
              <mxPoint x="635" y="550" />
              <mxPoint x="580" y="550" />
              <mxPoint x="520" y="550" />
              <mxPoint x="425" y="550" />
            </Array>
          </mxGeometry>
        </mxCell>
        <mxCell id="8ZvYy-rvlSSrWRd-s6ZS-79" value="Fornecedor" style="swimlane;fontStyle=0;childLayout=stackLayout;horizontal=1;startSize=30;horizontalStack=0;resizeParent=1;resizeParentMax=0;resizeLast=0;collapsible=1;marginBottom=0;whiteSpace=wrap;html=1;" vertex="1" parent="1">
          <mxGeometry x="530" y="830" width="210" height="80" as="geometry" />
        </mxCell>
        <mxCell id="8ZvYy-rvlSSrWRd-s6ZS-80" value="-servico: string&lt;br&gt;-dataContrato: data&lt;br&gt;-periodoMes: int" style="text;strokeColor=none;fillColor=none;align=left;verticalAlign=middle;spacingLeft=4;spacingRight=4;overflow=hidden;points=[[0,0.5],[1,0.5]];portConstraint=eastwest;rotatable=0;whiteSpace=wrap;html=1;" vertex="1" parent="8ZvYy-rvlSSrWRd-s6ZS-79">
          <mxGeometry y="30" width="210" height="50" as="geometry" />
        </mxCell>
        <mxCell id="8ZvYy-rvlSSrWRd-s6ZS-83" value="+Fornecedor(..., string, data)" style="rounded=0;whiteSpace=wrap;html=1;" vertex="1" parent="1">
          <mxGeometry x="530" y="910" width="210" height="50" as="geometry" />
        </mxCell>
        <mxCell id="8ZvYy-rvlSSrWRd-s6ZS-85" value="" style="endArrow=classic;html=1;rounded=0;exitX=0.5;exitY=0;exitDx=0;exitDy=0;entryX=0.5;entryY=1;entryDx=0;entryDy=0;" edge="1" parent="1" source="8ZvYy-rvlSSrWRd-s6ZS-79" target="8ZvYy-rvlSSrWRd-s6ZS-72">
          <mxGeometry width="50" height="50" relative="1" as="geometry">
            <mxPoint x="610" y="810" as="sourcePoint" />
            <mxPoint x="660" y="760" as="targetPoint" />
          </mxGeometry>
        </mxCell>
        <mxCell id="8ZvYy-rvlSSrWRd-s6ZS-90" value="BaseFuncionario&lt;br&gt;&amp;lt;&amp;lt;Abstract&amp;gt;&amp;gt;" style="swimlane;fontStyle=0;childLayout=stackLayout;horizontal=1;startSize=30;horizontalStack=0;resizeParent=1;resizeParentMax=0;resizeLast=0;collapsible=1;marginBottom=0;whiteSpace=wrap;html=1;" vertex="1" parent="1">
          <mxGeometry x="110" y="820" width="210" height="100" as="geometry" />
        </mxCell>
        <mxCell id="8ZvYy-rvlSSrWRd-s6ZS-91" value="#datavinculoinicial: data&lt;br&gt;#datavinculofinal: data&lt;br&gt;#cracha: string&lt;br&gt;registro: string" style="text;strokeColor=none;fillColor=none;align=left;verticalAlign=middle;spacingLeft=4;spacingRight=4;overflow=hidden;points=[[0,0.5],[1,0.5]];portConstraint=eastwest;rotatable=0;whiteSpace=wrap;html=1;" vertex="1" parent="8ZvYy-rvlSSrWRd-s6ZS-90">
          <mxGeometry y="30" width="210" height="70" as="geometry" />
        </mxCell>
        <mxCell id="8ZvYy-rvlSSrWRd-s6ZS-94" value="+BaseFuncionario(..., data, data, string, string)" style="rounded=0;whiteSpace=wrap;html=1;" vertex="1" parent="1">
          <mxGeometry x="110" y="920" width="210" height="40" as="geometry" />
        </mxCell>
        <mxCell id="8ZvYy-rvlSSrWRd-s6ZS-95" value="" style="endArrow=classic;html=1;rounded=0;exitX=0.5;exitY=0;exitDx=0;exitDy=0;entryX=0.5;entryY=1;entryDx=0;entryDy=0;" edge="1" parent="1" source="8ZvYy-rvlSSrWRd-s6ZS-90" target="8ZvYy-rvlSSrWRd-s6ZS-58">
          <mxGeometry width="50" height="50" relative="1" as="geometry">
            <mxPoint x="180" y="810" as="sourcePoint" />
            <mxPoint x="230" y="760" as="targetPoint" />
          </mxGeometry>
        </mxCell>
      </root>
    </mxGraphModel>
  </diagram>
</mxfile>
